HIERARCHY
ROOT hip
{
  OFFSET 0 0 0
  CHANNELS 6 Xposition Yposition Zposition Zrotation Yrotation Xrotation
  JOINT abdomen
  {
    OFFSET 0 20.6881 -0.73152
    CHANNELS 3 Zrotation Xrotation Yrotation
    JOINT chest
    {
      OFFSET 0 11.7043 -0.48768
      CHANNELS 3 Zrotation Xrotation Yrotation
      JOINT neck
      {
        OFFSET 0 22.1894 -2.19456
        CHANNELS 3 Zrotation Xrotation Yrotation
        JOINT head
        {
          OFFSET -0.24384 7.07133 1.2192
          CHANNELS 3 Zrotation Xrotation Yrotation
          JOINT leftEye
          {
            OFFSET 4.14528 8.04674 8.04672
            CHANNELS 3 Zrotation Xrotation Yrotation
            End Site
            {
              OFFSET 1 0 0
            }
          }
          JOINT rightEye
          {
            OFFSET -3.6576 8.04674 8.04672
            CHANNELS 3 Zrotation Xrotation Yrotation
            End Site
            {
              OFFSET 1 0 0
            }
          }
        }
      }
      JOINT rCollar
      {
        OFFSET -2.68224 19.2634 -4.8768
        CHANNELS 3 Zrotation Xrotation Yrotation
        JOINT rShldr
        {
          OFFSET -8.77824 -1.95073 1.46304
          CHANNELS 3 Zrotation Xrotation Yrotation
          JOINT rForeArm
          {
            OFFSET -28.1742 -1.7115 0.48768
            CHANNELS 3 Zrotation Xrotation Yrotation
            JOINT rHand
            {
              OFFSET -22.5879 0.773209 7.07136
              CHANNELS 3 Zrotation Xrotation Yrotation
              JOINT rThumb1
              {
                OFFSET -1.2192 -0.487915 3.41376
                CHANNELS 3 Zrotation Xrotation Yrotation
                JOINT rThumb2
                {
                  OFFSET -3.37035 -0.52449 3.41376
                  CHANNELS 3 Zrotation Xrotation Yrotation
                  End Site
                  {
                    OFFSET -1.78271 -1.18214 1.43049
                  }
                }
              }
              JOINT rIndex1
              {
                OFFSET -7.75947 0.938293 5.60832
                CHANNELS 3 Zrotation Xrotation Yrotation
                JOINT rIndex2
                {
                  OFFSET -2.54057 -0.884171 1.56538
                  CHANNELS 3 Zrotation Xrotation Yrotation
                  End Site
                  {
                    OFFSET -1.62519 -0.234802 1.16502
                  }
                }
              }
              JOINT rMid1
              {
                OFFSET -8.24714 1.18213 3.41376
                CHANNELS 3 Zrotation Xrotation Yrotation
                JOINT rMid2
                {
                  OFFSET -3.10165 -0.590103 1.0647
                  CHANNELS 3 Zrotation Xrotation Yrotation
                  End Site
                  {
                    OFFSET -2.48547 -0.328903 0.83742
                  }
                }
              }
              JOINT rRing1
              {
                OFFSET -8.82822 0.546677 1.51678
                CHANNELS 3 Zrotation Xrotation Yrotation
                JOINT rRing2
                {
                  OFFSET -2.60934 -0.819778 -0.0198488
                  CHANNELS 3 Zrotation Xrotation Yrotation
                  End Site
                  {
                    OFFSET -2.33842 -0.294052 0.168128
                  }
                }
              }
              JOINT rPinky1
              {
                OFFSET -8.27202 -0.0477905 -0.4584
                CHANNELS 3 Zrotation Xrotation Yrotation
                JOINT rPinky2
                {
                  OFFSET -1.82734 -0.647385 -0.700984
                  CHANNELS 3 Zrotation Xrotation Yrotation
                  End Site
                  {
                    OFFSET -1.69225 -0.51767 -0.607171
                  }
                }
              }
            }
          }
        }
      }
      JOINT lCollar
      {
        OFFSET 2.68224 19.2634 -4.8768
        CHANNELS 3 Zrotation Xrotation Yrotation
        JOINT lShldr
        {
          OFFSET 8.77824 -1.95073 1.46304
          CHANNELS 3 Zrotation Xrotation Yrotation
          JOINT lForeArm
          {
            OFFSET 28.1742 -1.7115 0.48768
            CHANNELS 3 Zrotation Xrotation Yrotation
            JOINT lHand
            {
              OFFSET 22.5879 0.773209 7.07136
              CHANNELS 3 Zrotation Xrotation Yrotation
              JOINT lThumb1
              {
                OFFSET 1.2192 -0.487915 3.41376
                CHANNELS 3 Zrotation Xrotation Yrotation
                JOINT lThumb2
                {
                  OFFSET 3.37035 -0.52449 3.41376
                  CHANNELS 3 Zrotation Xrotation Yrotation
                  End Site
                  {
                    OFFSET 1.78271 -1.18214 1.43049
                  }
                }
              }
              JOINT lIndex1
              {
                OFFSET 7.75947 0.938293 5.60832
                CHANNELS 3 Zrotation Xrotation Yrotation
                JOINT lIndex2
                {
                  OFFSET 2.54057 -0.884171 1.56538
                  CHANNELS 3 Zrotation Xrotation Yrotation
                  End Site
                  {
                    OFFSET 1.62519 -0.234802 1.16502
                  }
                }
              }
              JOINT lMid1
              {
                OFFSET 8.24714 1.18213 3.41376
                CHANNELS 3 Zrotation Xrotation Yrotation
                JOINT lMid2
                {
                  OFFSET 3.10165 -0.590103 1.0647
                  CHANNELS 3 Zrotation Xrotation Yrotation
                  End Site
                  {
                    OFFSET 2.48547 -0.328903 0.83742
                  }
                }
              }
              JOINT lRing1
              {
                OFFSET 8.82822 0.546677 1.51678
                CHANNELS 3 Zrotation Xrotation Yrotation
                JOINT lRing2
                {
                  OFFSET 2.60934 -0.819778 -0.0198488
                  CHANNELS 3 Zrotation Xrotation Yrotation
                  End Site
                  {
                    OFFSET 2.33842 -0.294052 0.168128
                  }
                }
              }
              JOINT lPinky1
              {
                OFFSET 8.27202 -0.0477905 -0.4584
                CHANNELS 3 Zrotation Xrotation Yrotation
                JOINT lPinky2
                {
                  OFFSET 1.82734 -0.647385 -0.700984
                  CHANNELS 3 Zrotation Xrotation Yrotation
                  End Site
                  {
                    OFFSET 1.69225 -0.51767 -0.607171
                  }
                }
              }
            }
          }
        }
      }
    }
  }
  JOINT rButtock
  {
    OFFSET -8.77824 4.35084 1.2192
    CHANNELS 3 Zrotation Xrotation Yrotation
    JOINT rThigh
    {
      OFFSET 0 -1.70687 -2.19456
      CHANNELS 3 Zrotation Xrotation Yrotation
      JOINT rShin
      {
        OFFSET 0 -36.8199 0.73152
        CHANNELS 3 Zrotation Xrotation Yrotation
        JOINT rFoot
        {
          OFFSET 0.73152 -45.1104 -5.12064
          CHANNELS 3 Zrotation Xrotation Yrotation
          End Site
          {
            OFFSET -1.1221 -3.69964 12.103
          }
        }
      }
    }
  }
  JOINT lButtock
  {
    OFFSET 8.77824 4.35084 1.2192
    CHANNELS 3 Zrotation Xrotation Yrotation
    JOINT lThigh
    {
      OFFSET 0 -1.70687 -2.19456
      CHANNELS 3 Zrotation Xrotation Yrotation
      JOINT lShin
      {
        OFFSET 0 -36.8199 0.73152
        CHANNELS 3 Zrotation Xrotation Yrotation
        JOINT lFoot
        {
          OFFSET -0.73152 -45.1104 -5.12064
          CHANNELS 3 Zrotation Xrotation Yrotation
          End Site
          {
            OFFSET 1.1221 -3.69964 12.103
          }
        }
      }
    }
  }
}
MOTION
Frames:	5
Frame Time:	0.03333
16.4599 64.0844 -2.5362 -4.358602 20.956447 0.894322 -1.265424 9.226463 -172.752411 -3.816499 0.301937 177.340113 1.406531 25.845789 143.009407 -29.377222 36.695661 -114.887655 13.198458 2.512693 21.467883 -107.200254 5.996352 8.12707 -14.732652 34.014929 19.81627 -115.196557 2.21062 164.948564 4.137668 -15.407439 -140.028089 169.026621 -15.563088 138.717742 -164.589069 -5.834317 89.846486 172.802466 -35.999442 91.990488 -43.461575 34.472751 53.380943 -9.110588 41.923638 -5.641561 -5.368437 12.743104 7.245471 -157.608984 -1.903434 148.898901 -17.575015 36.365666 11.49447 -139.249792 -31.451521 178.465678 -168.989816 8.266019 -133.952248 -138.790257 -44.29777 -83.208942 -7.372963 8.624252 2.726586 -68.407544 -8.894858 -24.016427 -122.880168 25.914641 -47.381709 129.257691 55.86801 -107.262593 53.415922 34.9341 -28.753887 -28.418166 -7.405212 -32.58604 -43.577059 -53.742931 -17.048264 35.274047 69.367629 -26.738896 166.626056 -30.239183 -141.954314 166.247462 -33.855487 -155.076313 145.365652 -12.336936 173.567064 112.195643 71.556195 -111.917144 106.360477 -46.997597 69.830542 107.205744 10.812071 84.460397 -82.76763 44.507829 -52.221426 95.531034 27.993783 -94.902281 -62.299403 -34.213102 -121.393619 0.516511 32.705707 -157.033638 -59.924303 11.428463 -13.318838 117.488398 -33.418152 -1.95013 -59.831919 29.59289 -28.08714 139.142831 -9.216925 -107.788843
17.5302 64.066 -3.3594 -5.139346 22.114269 0.684301 -0.443472 8.091169 -175.16737 -3.809053 -0.227741 -178.510013 -4.182901 29.370329 -175.068263 1.602129 49.479891 -170.057254 9.989649 1.604706 18.207396 -105.656352 11.094768 14.598158 -131.342184 47.284249 134.413506 67.827288 -34.007376 73.953077 118.242311 55.827307 90.591472 -179.039643 21.57663 140.818636 -167.437979 -7.208699 88.354575 23.971735 -52.072039 19.547509 13.875102 6.66724 10.945702 -13.8231 18.61747 -5.099828 1.834426 -10.236248 0.989516 30.9173 -77.321407 -1.486668 -56.595102 71.879742 56.131266 3.471751 40.020759 25.981828 -145.421044 -29.900044 -115.42324 34.152444 42.240353 -54.920034 148.946825 -20.155303 -168.004439 43.646705 -11.375256 23.059288 -175.357088 -4.051254 77.417427 15.747152 8.095736 -1.001262 169.217728 -10.858126 -88.429898 -134.335496 -51.678075 -116.944998 168.411135 -24.874392 -110.290637 170.410843 7.599532 -118.990436 137.351299 33.2309 -125.783087 -158.07349 -65.616198 -131.739292 2.365208 3.553173 1.309463 127.883225 -42.258522 161.241081 -171.097921 45.345994 143.1657 71.177505 49.6521 -66.645674 -176.796262 76.139207 -5.007133 170.543236 58.317516 9.190731 17.469223 54.804235 32.705976 -165.160468 -61.122254 111.598792 59.560073 48.146071 37.856113 -105.119765 -48.196088 167.152177 -58.796138 -49.646537 -27.611839 -41.808289 36.996941 131.631322
18.583 63.9751 -3.8449999999999998 -6.338573 24.537835 -0.762155 -0.172669 9.355101 172.396554 -4.254103 0.135359 -164.006233 1.623039 12.202326 42.660195 -24.247949 -20.653754 -34.726682 10.25875 0.800226 8.896964 -84.758151 -12.446608 13.63003 2.808432 -14.306405 -1.1039 -125.615126 -4.558018 -157.677742 -21.590462 27.161001 -131.038049 158.943857 -40.414054 132.48678 34.550807 -30.250303 4.484728 -143.973535 -10.458038 117.26724 2.51571 19.657608 16.820771 -4.056308 -0.248613 -12.393588 -0.295489 4.091907 0.301698 -165.878693 -22.788104 147.832173 -16.104015 -15.477275 -5.451109 62.342244 77.216732 -35.86658 19.053622 78.374728 -7.763029 -23.452947 22.022369 67.288242 7.565367 42.781431 -15.405088 126.198909 -5.043941 -127.050612 14.813793 -23.663036 143.021254 177.336746 -22.421651 -145.602509 39.160476 28.638477 -20.417093 -23.420135 -4.288653 -28.605672 -168.718422 -44.296736 -104.347643 6.436965 4.520706 16.505811 151.675318 11.995347 -134.77407 174.906234 -17.294604 -145.596958 145.249497 0.372217 179.726566 156.109997 34.033579 -159.469029 13.197404 37.250918 -12.931861 -5.807797 51.403595 -69.103746 20.574624 6.37603 14.261753 -31.929613 -15.735741 -79.407201 -51.374513 29.598147 103.637426 -176.58732 -16.053591 74.466393 -93.683315 24.714557 -28.936711 147.981756 -14.401277 -102.336497 -62.880507 -33.657633 -154.680682 5.243895 57.95199 -89.793299
19.5139 63.929 -4.3321 -7.231646 25.50489 -1.408532 0.884378 9.337197 178.402655 -3.865338 1.191856 -169.217991 7.106168 21.593211 102.063064 -38.910797 15.005325 -86.625739 7.835431 0.394407 5.754306 -71.594006 -10.01068 13.849276 -34.343258 59.820322 36.338115 -161.970821 -46.224007 127.331331 -130.657728 -86.273311 84.575903 168.084052 -19.071317 138.216904 -14.327486 14.444635 6.401347 -76.694213 28.520506 70.665778 20.334588 0.597271 5.469918 -5.579207 -7.082439 -3.596568 11.448173 -33.721629 -4.132073 -83.402524 67.213921 73.184646 -18.744803 18.042445 6.814497 35.462979 41.456554 -3.089206 -139.546904 -36.097626 -110.570931 -137.257674 -6.863231 -83.083917 152.051168 -21.818032 -164.768955 42.620357 -11.104488 20.862857 -18.619018 -16.76505 130.85397 168.231659 9.754458 -139.628612 -167.735328 -26.405581 -80.409343 118.321377 37.147921 -45.326341 13.268268 1.35563 -14.933397 -51.632787 -31.253722 0.84904 14.37682 24.651935 -13.631401 164.504495 -32.868576 -141.495637 -1.727058 -4.736995 0.80632 140.363819 -37.885442 169.719593 17.582947 3.33817 -0.877074 -50.921944 37.331491 -21.206006 -1.139854 4.887978 -0.677432 -6.48752 -23.103948 176.180406 -20.907528 -61.717015 -114.549751 -43.324982 -16.163632 -117.471557 -40.433229 10.136294 -1.884645 105.214464 -46.350207 -151.293944 55.019152 -49.38341 118.068341 133.449788 -10.06416 -130.985239
20.3457 63.7204 -4.9249 -8.158272 25.899483 -1.884966 1.251395 9.141738 158.171516 -4.562693 0.102427 -148.963161 -13.448299 17.881991 -54.784843 37.579418 -9.543439 67.16903 9.09115 0.273458 3.438611 -65.924285 -9.345878 14.368491 2.000227 -34.106129 -6.418003 -160.234673 31.676659 -141.680327 24.731659 70.531123 -161.160876 172.312373 -5.356586 139.945687 -152.694763 4.365012 85.581197 8.029821 -36.311748 28.379051 12.202347 8.951855 8.826016 4.32311 -26.394125 -5.690577 -0.579398 3.874525 -0.337157 -21.135745 50.619522 14.507576 -21.294568 11.063012 4.997145 -122.858805 -27.274543 -171.805144 -162.056497 -12.046712 -130.426853 -108.702718 -33.496463 -57.536587 150.152292 -6.273303 -162.135167 47.93051 -30.212515 10.207213 -78.973234 -24.725307 130.759981 111.38091 62.048071 -87.936262 16.28051 12.770336 -9.884643 96.82933 -14.256647 -105.107096 11.415785 1.415181 -15.129546 -45.70639 -28.571487 0.41897 166.591369 -17.452441 -139.305122 172.922475 -5.079787 -140.886639 -3.603169 -2.928155 -0.463441 -21.091791 53.701115 4.075473 -9.559262 67.246964 -6.96169 -73.933327 -81.837993 -69.407552 -167.319158 70.221338 -10.724903 162.092675 51.942273 -161.912349 -23.322882 -55.639309 -177.35414 -141.453837 30.108248 41.945751 -54.683268 11.633836 -11.780479 114.490506 -31.91424 -2.082393 -60.547642 38.418992 -166.387197 -108.223798 -30.471078 144.111801
